<svg xmlns="http://www.w3.org/2000/svg" width="64" height="64" viewBox="0 0 64 64"><g><g><g><path fill="#393185" d="M7.11 7.112v14.222h14.223V7.112zM24.89 28.445H3.556A3.56 3.56 0 0 1 0 24.89V3.556A3.56 3.56 0 0 1 3.556 0h21.333a3.56 3.56 0 0 1 3.556 3.556V24.89a3.56 3.56 0 0 1-3.556 3.555zM42.666 7.112v14.222H56.89V7.112zm17.779 21.333H39.11a3.56 3.56 0 0 1-3.556-3.555V3.556A3.56 3.56 0 0 1 39.111 0h21.334A3.56 3.56 0 0 1 64 3.556V24.89a3.559 3.559 0 0 1-3.555 3.555zM7.11 42.668V56.89h14.222V42.668zm17.778 21.333H3.556A3.56 3.56 0 0 1 0 60.446V39.112a3.56 3.56 0 0 1 3.556-3.555h21.333a3.56 3.56 0 0 1 3.556 3.555v21.334A3.56 3.56 0 0 1 24.889 64z"/></g><g><path fill="#e5097f" d="M56.89 49.78c0 3.92-3.191 7.11-7.113 7.11a7.119 7.119 0 0 1-7.11-7.11c0-3.922 3.19-7.113 7.11-7.113a7.12 7.12 0 0 1 7.112 7.112zm7.11-.002c0-7.842-6.38-14.222-14.223-14.222-7.842 0-14.221 6.38-14.221 14.222 0 7.843 6.38 14.223 14.221 14.223C57.62 64 64 57.62 64 49.778z"/></g></g></g></svg>