<svg xmlns="http://www.w3.org/2000/svg" width="64" height="58" viewBox="0 0 64 58"><g><g><g><path fill="#393185" d="M9.387 45.227V12.8h6.46v32.427zm9.69 0V12.8h3.232v32.427zm6.462 0V12.8h9.691v32.427zm12.922 0V12.8h3.23v32.427zm6.461 0V12.8h9.692v32.427z"/></g><g><path fill="#e5097f" d="M0 19.343V6.448C0 2.892 2.87.001 6.4.001h12.8v6.447H6.4v12.895zm57.6 0V6.448H44.8V.001h12.8C61.13 0 64 2.892 64 6.448v12.895zM44.8 58v-6.446h12.8V38.658H64v12.896C64 55.109 61.13 58 57.6 58zm-38.4.027c-3.53 0-6.4-2.891-6.4-6.447V38.685h6.4V51.58h12.8v6.447z"/></g></g></g></svg>