<svg xmlns="http://www.w3.org/2000/svg" width="120.664" height="41" viewBox="0 0 120.664 41"><g transform="translate(0.5 0.5)"><path d="M2291.135-2255.5h-100.6c-.366,0-.728,0-1.094,0-.323,0-.624,0-.919-.012a13.391,13.391,0,0,1-2-.176,6.667,6.667,0,0,1-1.9-.63A6.25,6.25,0,0,1,2183-2257.5a6.2,6.2,0,0,1-1.18-1.614,6.647,6.647,0,0,1-.625-1.9,13.181,13.181,0,0,1-.178-2c-.006-.2-.009-.4-.011-.6v-.141l0-.183v-23.115c0-.082,0-.164,0-.245v-.018c0-.216,0-.438.012-.657a13.2,13.2,0,0,1,.178-2,6.629,6.629,0,0,1,.625-1.9,6.23,6.23,0,0,1,1.18-1.621,6.364,6.364,0,0,1,1.618-1.18,6.691,6.691,0,0,1,1.9-.627,13.246,13.246,0,0,1,2-.176l.285,0,.634-.008c.366,0,.72,0,1.094,0h100.6c.356,0,.724,0,1.084,0l.652.009.27,0a13.094,13.094,0,0,1,2,.176,6.739,6.739,0,0,1,1.908.627,6.434,6.434,0,0,1,2.8,2.8,6.588,6.588,0,0,1,.619,1.9,13.53,13.53,0,0,1,.186,2c0,.307,0,.619,0,.92.009.363.009.734.009,1.092v20.929c0,.375,0,.73-.009,1.094,0,.314,0,.611,0,.922a13.487,13.487,0,0,1-.186,2,6.6,6.6,0,0,1-.619,1.9,6.377,6.377,0,0,1-1.182,1.614,6.245,6.245,0,0,1-1.617,1.179,6.811,6.811,0,0,1-1.908.631,13.311,13.311,0,0,1-2,.175c-.284.008-.594.012-.922.012C2291.858-2255.5,2291.494-2255.5,2291.135-2255.5Zm-101.69-39.125-.9.011a12.888,12.888,0,0,0-1.875.164,5.816,5.816,0,0,0-1.652.545,5.537,5.537,0,0,0-1.4,1.023,5.312,5.312,0,0,0-1.014,1.4,5.757,5.757,0,0,0-.543,1.663,12.259,12.259,0,0,0-.166,1.871c-.006.2-.015.89-.015.894v23.1s.008.7.015.913a12.342,12.342,0,0,0,.167,1.875,5.727,5.727,0,0,0,.542,1.658,5.333,5.333,0,0,0,1.021,1.4,5.415,5.415,0,0,0,1.4,1.016,5.9,5.9,0,0,0,1.656.548,12.842,12.842,0,0,0,1.871.163c.306.007.6.01.9.01l101.69,0,1.084,0c.305,0,.607,0,.9-.01a12.628,12.628,0,0,0,1.869-.163,5.855,5.855,0,0,0,1.667-.551,5.41,5.41,0,0,0,1.4-1.022,5.468,5.468,0,0,0,1.014-1.386,5.715,5.715,0,0,0,.541-1.669,12.54,12.54,0,0,0,.17-1.853c0-.308,0-.61,0-.931.008-.356.008-.705.008-1.075v-20.929c0-.353,0-.718-.008-1.092,0-.3,0-.607,0-.889a12.8,12.8,0,0,0-.174-1.887,5.7,5.7,0,0,0-.535-1.649,5.553,5.553,0,0,0-2.415-2.421,5.961,5.961,0,0,0-1.671-.548,12.444,12.444,0,0,0-1.858-.161l-.913-.013Z" transform="translate(-2181 2295.5)" fill="#a6a6a6" stroke="rgba(0,0,0,0)" stroke-miterlimit="10" stroke-width="1"/><path d="M24.769,20.3a4.948,4.948,0,0,1,2.356-4.152,5.065,5.065,0,0,0-3.991-2.158C21.455,13.815,19.827,15,18.971,15c-.872,0-2.189-.988-3.608-.958a5.315,5.315,0,0,0-4.473,2.727c-1.934,3.349-.491,8.27,1.361,10.977.927,1.325,2.01,2.805,3.428,2.753,1.387-.058,1.9-.885,3.579-.885s2.145.885,3.591.852c1.489-.025,2.426-1.332,3.321-2.67A10.959,10.959,0,0,0,27.688,24.7,4.782,4.782,0,0,1,24.769,20.3Z" fill="#fff"/><path d="M22.037,12.211A4.869,4.869,0,0,0,23.152,8.72a4.958,4.958,0,0,0-3.208,1.66A4.64,4.64,0,0,0,18.8,13.741,4.1,4.1,0,0,0,22.037,12.211Z" fill="#fff"/><path d="M42.3,27.14H37.569L36.432,30.5H34.427l4.484-12.418h2.083L45.477,30.5H43.438Zm-4.243-1.549h3.752l-1.85-5.447H39.91Z" fill="#fff"/><path d="M55.16,25.97c0,2.813-1.506,4.621-3.779,4.621a3.07,3.07,0,0,1-2.848-1.584H48.49v4.484H46.631V21.442h1.8v1.506h.034a3.212,3.212,0,0,1,2.883-1.6C53.645,21.348,55.16,23.164,55.16,25.97Zm-1.91,0c0-1.833-.948-3.038-2.393-3.038-1.42,0-2.375,1.23-2.375,3.038,0,1.824.955,3.046,2.375,3.046C52.3,29.016,53.25,27.819,53.25,25.97Z" fill="#fff"/><path d="M65.125,25.97c0,2.813-1.506,4.621-3.779,4.621A3.07,3.07,0,0,1,58.5,29.007h-.043v4.484H56.6V21.442h1.8v1.506h.034a3.212,3.212,0,0,1,2.883-1.6C63.61,21.348,65.125,23.164,65.125,25.97Zm-1.911,0c0-1.833-.947-3.038-2.392-3.038-1.42,0-2.375,1.23-2.375,3.038,0,1.824.955,3.046,2.375,3.046,1.445,0,2.392-1.2,2.392-3.046Z" fill="#fff"/><path d="M71.71,27.036c.138,1.232,1.334,2.04,2.969,2.04,1.567,0,2.694-.808,2.694-1.919,0-.964-.68-1.541-2.289-1.936l-1.61-.388c-2.28-.551-3.339-1.617-3.339-3.348,0-2.142,1.867-3.614,4.519-3.614,2.624,0,4.423,1.472,4.483,3.614H77.261c-.112-1.239-1.136-1.987-2.634-1.987s-2.521.757-2.521,1.858c0,.878.654,1.395,2.255,1.79l1.368.336c2.548.6,3.606,1.626,3.606,3.443,0,2.323-1.85,3.778-4.793,3.778-2.754,0-4.614-1.421-4.734-3.667Z" fill="#fff"/><path d="M83.346,19.3v2.142h1.722v1.472H83.346v4.991c0,.776.345,1.137,1.1,1.137A5.954,5.954,0,0,0,85.059,29v1.463a5.174,5.174,0,0,1-1.032.086c-1.833,0-2.548-.689-2.548-2.445V22.914H80.163V21.442h1.316V19.3Z" fill="#fff"/><path d="M86.065,25.97c0-2.849,1.678-4.639,4.294-4.639s4.295,1.79,4.295,4.639-1.661,4.638-4.295,4.638S86.065,28.826,86.065,25.97Zm6.695,0c0-1.954-.9-3.108-2.4-3.108s-2.4,1.162-2.4,3.108c0,1.962.894,3.106,2.4,3.106s2.4-1.144,2.4-3.106Z" fill="#fff"/><path d="M96.186,21.442h1.773v1.541H98a2.158,2.158,0,0,1,2.177-1.635,2.845,2.845,0,0,1,.637.069v1.738a2.619,2.619,0,0,0-.835-.112,1.873,1.873,0,0,0-1.947,1.8,1.981,1.981,0,0,0,.01.288V30.5H96.186Z" fill="#fff"/><path d="M109.384,27.837c-.25,1.643-1.85,2.771-3.9,2.771-2.634,0-4.269-1.764-4.269-4.595s1.644-4.682,4.191-4.682c2.505,0,4.08,1.721,4.08,4.466v.637h-6.395v.112a2.359,2.359,0,0,0,2.141,2.557,2.422,2.422,0,0,0,.295.007,2.048,2.048,0,0,0,2.091-1.273Zm-6.282-2.7h4.526a2.177,2.177,0,0,0-2.052-2.3q-.084,0-.168,0a2.292,2.292,0,0,0-2.306,2.278Z" fill="#fff"/><path d="M36.738,11.253h.8a1,1,0,0,0,1.118-.87.737.737,0,0,0,.007-.081c0-.55-.414-.906-1.116-.906a1.065,1.065,0,0,0-1.2.907l0,.028h-.876a1.87,1.87,0,0,1,1.977-1.757c.044,0,.088.006.131.012,1.175,0,2,.658,2,1.6a1.385,1.385,0,0,1-1.084,1.365v.07a1.39,1.39,0,0,1,1.327,1.443,1.992,1.992,0,0,1-2.186,1.779l-.042-.005a1.984,1.984,0,0,1-2.233-1.7c0-.023-.006-.045-.008-.068h.889c.054.57.578.939,1.352.939s1.278-.414,1.278-1-.475-.955-1.306-.955h-.824Z" fill="#fff"/><path d="M40.829,13.424c0-.81.6-1.278,1.675-1.344l1.22-.07v-.389c0-.475-.314-.744-.922-.744-.5,0-.839.182-.939.5H41c.091-.773.819-1.269,1.841-1.269,1.129,0,1.765.562,1.765,1.513V14.7h-.856v-.633h-.07a1.517,1.517,0,0,1-1.353.707,1.361,1.361,0,0,1-1.494-1.212C40.832,13.515,40.829,13.47,40.829,13.424Zm2.9-.384v-.377l-1.1.07c-.62.042-.9.253-.9.65s.351.641.835.641a1.062,1.062,0,0,0,1.163-.949Z" fill="#fff"/><path d="M46.968,10.943V14.7h-.889v-4.5h2.965v.748Z" fill="#fff"/><path d="M54.43,12.444c0,1.431-.724,2.328-1.861,2.328a1.467,1.467,0,0,1-1.385-.756h-.071v2.179h-.888v-6h.855v.744h.067a1.565,1.565,0,0,1,1.414-.819C53.706,10.12,54.43,11.013,54.43,12.444Zm-.914,0c0-.951-.451-1.526-1.2-1.526s-1.216.587-1.216,1.53.467,1.526,1.212,1.526S53.516,13.4,53.516,12.444Z" fill="#fff"/><path d="M55.613,16.311v-.766a2.007,2.007,0,0,0,.29.017.772.772,0,0,0,.815-.628l.066-.22-1.63-4.519h.968l1.129,3.576h.07l1.125-3.576h.943L57.71,14.884c-.385,1.1-.811,1.447-1.729,1.447C55.907,16.331,55.7,16.323,55.613,16.311Z" fill="#fff"/><path d="M60.081,13.42h.885c.087.4.459.6.979.6.592,0,.955-.261.955-.666,0-.434-.326-.641-.955-.641h-.674v-.691h.663c.537,0,.81-.206.81-.583,0-.33-.264-.583-.81-.583-.5,0-.861.211-.918.567h-.857a1.579,1.579,0,0,1,1.775-1.319c1.07,0,1.682.484,1.682,1.245a.924.924,0,0,1-.711.921v.071a1.01,1.01,0,0,1,.881,1.013c0,.856-.728,1.422-1.841,1.422C60.962,14.78,60.163,14.33,60.081,13.42Z" fill="#fff"/><path d="M65.066,14.7v-4.5h.881v3.1h.07l2.075-3.1h.881v4.5h-.881V11.584h-.066L65.947,14.7Z" fill="#fff"/><path d="M73.826,10.943H72.408V14.7h-.89V10.943H70.1v-.748h3.726Z" fill="#fff"/><path d="M78.613,13.482a1.831,1.831,0,0,1-1.952,1.3,2.046,2.046,0,0,1-2.1-1.991,1.97,1.97,0,0,1,.019-.334,2.074,2.074,0,0,1,2.076-2.352c1.253,0,2.01.856,2.01,2.27v.31h-3.18v.05a1.189,1.189,0,0,0,1.084,1.286c.038,0,.077,0,.115,0a1.078,1.078,0,0,0,1.07-.546Zm-3.126-1.451H77.76a1.085,1.085,0,0,0-1-1.164.921.921,0,0,0-.105,0A1.151,1.151,0,0,0,75.487,12v.032Z" fill="#fff"/><path d="M82.38,10.195h2.031c.881,0,1.4.446,1.4,1.145a.967.967,0,0,1-.761.951v.07A1.027,1.027,0,0,1,86.01,13.4c0,.786-.591,1.3-1.579,1.3H82.38Zm.881.682v1.166h.881c.537,0,.794-.207.794-.587,0-.352-.224-.579-.695-.579Zm0,1.819v1.32h1.054c.525,0,.807-.232.807-.658,0-.451-.319-.662-.918-.662Z" fill="#fff"/></g></svg>