<svg xmlns="http://www.w3.org/2000/svg" xmlns:xlink="http://www.w3.org/1999/xlink" width="135" height="40" viewBox="0 0 135 40"><defs><linearGradient id="a" x1="1.076" y1="28.51" x2="-1.305" y2="28.51" gradientUnits="objectBoundingBox"><stop offset="0" stop-color="#ffe000"/><stop offset="0.409" stop-color="#ffbd00"/><stop offset="0.775" stop-color="orange"/><stop offset="1" stop-color="#ff9c00"/></linearGradient></defs><g transform="translate(-149.154 38.801)"><path d="M5,0H130a5,5,0,0,1,5,5V35a5,5,0,0,1-5,5H5a5,5,0,0,1-5-5V5A5,5,0,0,1,5,0Z" transform="translate(149.154 -38.801)" fill="none"/><path d="M279.154-38a4.205,4.205,0,0,1,4.2,4.2v30a4.2,4.2,0,0,1-4.2,4.2h-125a4.2,4.2,0,0,1-4.2-4.2v-30a4.205,4.205,0,0,1,4.2-4.2h125m0-.8h-125a5.015,5.015,0,0,0-5,5v30a5.015,5.015,0,0,0,5,5h125a5.015,5.015,0,0,0,5-5v-30a5.015,5.015,0,0,0-5-5Z" fill="#a6a6a6"/><path d="M217.29-17.049a4.192,4.192,0,0,0-4.269,4.253,4.2,4.2,0,0,0,4.269,4.253,4.2,4.2,0,0,0,4.269-4.253A4.192,4.192,0,0,0,217.29-17.049Zm0,6.831a2.46,2.46,0,0,1-2.4-2.578,2.45,2.45,0,0,1,2.4-2.577,2.45,2.45,0,0,1,2.4,2.577A2.46,2.46,0,0,1,217.29-10.218Zm-9.313-6.831a4.192,4.192,0,0,0-4.27,4.253,4.2,4.2,0,0,0,4.27,4.253,4.2,4.2,0,0,0,4.269-4.253A4.192,4.192,0,0,0,207.977-17.049Zm0,6.831a2.461,2.461,0,0,1-2.4-2.578,2.451,2.451,0,0,1,2.4-2.577,2.451,2.451,0,0,1,2.4,2.577A2.461,2.461,0,0,1,207.977-10.218ZM196.9-15.744v1.8h4.318a3.772,3.772,0,0,1-.983,2.272,4.422,4.422,0,0,1-3.335,1.321,4.739,4.739,0,0,1-4.737-4.8,4.739,4.739,0,0,1,4.737-4.8,4.6,4.6,0,0,1,3.254,1.289l1.273-1.273a6.293,6.293,0,0,0-4.527-1.82,6.7,6.7,0,0,0-6.7,6.605,6.7,6.7,0,0,0,6.7,6.6,6.037,6.037,0,0,0,4.607-1.852,5.959,5.959,0,0,0,1.563-4.221,5.84,5.84,0,0,0-.1-1.128Zm45.308,1.4a3.952,3.952,0,0,0-3.641-2.707,4.042,4.042,0,0,0-4.011,4.253,4.161,4.161,0,0,0,4.221,4.253,4.232,4.232,0,0,0,3.544-1.884l-1.45-.967a2.428,2.428,0,0,1-2.094,1.176,2.164,2.164,0,0,1-2.063-1.289l5.688-2.352Zm-5.8,1.417a2.333,2.333,0,0,1,2.224-2.481,1.645,1.645,0,0,1,1.578.9ZM231.783-8.8h1.868V-21.3h-1.868Zm-3.061-7.3h-.065a2.945,2.945,0,0,0-2.239-.951,4.23,4.23,0,0,0-4.076,4.269,4.211,4.211,0,0,0,4.076,4.237,2.9,2.9,0,0,0,2.239-.966h.065V-8.9c0,1.627-.87,2.5-2.272,2.5a2.353,2.353,0,0,1-2.143-1.514l-1.627.676a4.054,4.054,0,0,0,3.77,2.514c2.191,0,4.044-1.289,4.044-4.431v-7.636h-1.772Zm-2.143,5.88a2.44,2.44,0,0,1-2.368-2.562,2.459,2.459,0,0,1,2.368-2.593,2.4,2.4,0,0,1,2.272,2.593A2.377,2.377,0,0,1,226.579-10.218ZM250.96-21.3h-4.471V-8.8h1.866v-4.737h2.605a3.961,3.961,0,0,0,4.1-3.882A3.962,3.962,0,0,0,250.96-21.3Zm.048,6.025h-2.653v-4.285h2.653a2.167,2.167,0,0,1,2.188,2.143A2.178,2.178,0,0,1,251.008-15.277Zm11.532-1.8a3.5,3.5,0,0,0-3.329,1.914l1.656.692a1.768,1.768,0,0,1,1.7-.917,1.8,1.8,0,0,1,1.962,1.608v.129a4.126,4.126,0,0,0-1.946-.483c-1.785,0-3.6.981-3.6,2.815a2.887,2.887,0,0,0,3.1,2.75,2.633,2.633,0,0,0,2.38-1.222h.064v.965h1.8v-4.793C266.336-15.833,264.679-17.072,262.54-17.072Zm-.225,6.852c-.611,0-1.464-.306-1.464-1.062,0-.965,1.062-1.335,1.978-1.335a3.323,3.323,0,0,1,1.7.418A2.263,2.263,0,0,1,262.315-10.22ZM272.9-16.8l-2.14,5.42h-.064l-2.219-5.42h-2.011l3.329,7.575-1.9,4.214h1.946l5.13-11.789Zm-16.807,8h1.865V-21.3h-1.865Z" fill="#636464"/><path d="M159.59-31.262a2,2,0,0,0-.463,1.4V-7.741a2,2,0,0,0,.463,1.4l.074.073,12.389-12.389v-.293L159.664-31.335Z" fill="#00d2ff"/><path d="M176.182-14.522l-4.129-4.131v-.293l4.13-4.13.093.053,4.893,2.78c1.4.794,1.4,2.093,0,2.888l-4.893,2.78Z" fill="url(#a)"/><path d="M176.276-14.576,172.053-18.8,159.59-6.337a1.626,1.626,0,0,0,2.078.062l14.608-8.3" fill="#f83548"/><path d="M176.276-23.023l-14.608-8.3a1.626,1.626,0,0,0-2.078.062L172.053-18.8Z" fill="#17ed6e"/><path d="M176.183-14.669,161.668-6.421a1.666,1.666,0,0,1-2,.01h0l-.074.075h0l.074.072h0a1.667,1.667,0,0,0,2-.011l14.608-8.3Z" opacity="0.2" style="isolation:isolate"/><path d="M159.59-6.482a2,2,0,0,1-.463-1.405v.146a2,2,0,0,0,.463,1.405l.074-.075Z" opacity="0.12" style="isolation:isolate"/><path d="M181.169-17.5l-4.986,2.833.093.093,4.893-2.78a1.755,1.755,0,0,0,1.048-1.443h0A1.861,1.861,0,0,1,181.169-17.5Z" opacity="0.12" style="isolation:isolate"/><path d="M161.668-31.177l19.5,11.08a1.861,1.861,0,0,1,1.048,1.3h0a1.751,1.751,0,0,0-1.048-1.444l-19.5-11.08c-1.4-.794-2.541-.135-2.541,1.466v.146C159.127-31.312,160.27-31.971,161.668-31.177Z" fill="#fff" opacity="0.25" style="isolation:isolate"/><path d="M191.268-24.527h-.737v-2.011h.587a2.858,2.858,0,0,0,.762-2.3V-31.8h4.006v5.262h.67v2.011h-.737V-25.8h-4.551Zm1.383-4.307a3.958,3.958,0,0,1-.57,2.3h3.034v-4.525h-2.464Z" fill="#a6a6a6"/><path d="M202.569-26.576a2.944,2.944,0,0,1-2.2.909,2.94,2.94,0,0,1-2.2-.909,3.066,3.066,0,0,1-.884-2.224,3.068,3.068,0,0,1,.884-2.225,2.941,2.941,0,0,1,2.2-.91,2.943,2.943,0,0,1,2.2.914,3.066,3.066,0,0,1,.887,2.221A3.069,3.069,0,0,1,202.569-26.576Zm-3.83-.5a2.2,2.2,0,0,0,1.63.674A2.2,2.2,0,0,0,202-27.078a2.346,2.346,0,0,0,.667-1.722A2.347,2.347,0,0,0,202-30.523a2.2,2.2,0,0,0-1.629-.674,2.2,2.2,0,0,0-1.63.674,2.35,2.35,0,0,0-.666,1.723A2.349,2.349,0,0,0,198.739-27.078Z" fill="#a6a6a6"/><path d="M207.333-25.667a3.013,3.013,0,0,1-2.22-.9,3.033,3.033,0,0,1-.9-2.237,3.033,3.033,0,0,1,.9-2.238,3.018,3.018,0,0,1,2.22-.9,2.773,2.773,0,0,1,2.2.981l-.537.52a2.021,2.021,0,0,0-1.667-.763,2.272,2.272,0,0,0-1.655.662A2.323,2.323,0,0,0,205-28.8a2.321,2.321,0,0,0,.675,1.734,2.272,2.272,0,0,0,1.655.662,2.366,2.366,0,0,0,1.844-.871l.536.536a2.907,2.907,0,0,1-1.031.783A3.147,3.147,0,0,1,207.333-25.667Z" fill="#a6a6a6"/><path d="M212.831-25.8h-.771v-5.263h-1.676V-31.8h4.123v.737h-1.676Z" fill="#a6a6a6"/><path d="M219.8-31.8l-2.271,5.061a1.507,1.507,0,0,1-1.4,1.072,1.553,1.553,0,0,1-.6-.133l.2-.713a.8.8,0,0,0,.4.109.713.713,0,0,0,.415-.1.944.944,0,0,0,.273-.382l.217-.478L215.025-31.8h.9l1.483,3.444h.033L218.9-31.8Z" fill="#a6a6a6"/><path d="M220.674-25.8v-6h4.341v6h-.772v-5.263h-2.8V-25.8Z" fill="#a6a6a6"/><path d="M226.389-25.8v-6h.77v2.572h3V-31.8h.772v6h-.772v-2.707h-3V-25.8Z" fill="#a6a6a6"/><path d="M237.212-26.576a2.942,2.942,0,0,1-2.2.909,2.94,2.94,0,0,1-2.2-.909,3.069,3.069,0,0,1-.883-2.224,3.071,3.071,0,0,1,.883-2.225,2.941,2.941,0,0,1,2.2-.91,2.942,2.942,0,0,1,2.2.914A3.067,3.067,0,0,1,238.1-28.8,3.07,3.07,0,0,1,237.212-26.576Zm-3.83-.5a2.2,2.2,0,0,0,1.63.674,2.2,2.2,0,0,0,1.629-.674,2.346,2.346,0,0,0,.667-1.722,2.347,2.347,0,0,0-.667-1.723,2.2,2.2,0,0,0-1.629-.674,2.2,2.2,0,0,0-1.63.674,2.35,2.35,0,0,0-.666,1.723A2.349,2.349,0,0,0,233.382-27.078Z" fill="#a6a6a6"/><path d="M241.248-25.8v-6h2.17a1.765,1.765,0,0,1,1.22.464,1.513,1.513,0,0,1,.515,1.169,1.313,1.313,0,0,1-.222.755,1.392,1.392,0,0,1-.591.494v.034a1.513,1.513,0,0,1,.729.519,1.36,1.36,0,0,1,.285.855,1.572,1.572,0,0,1-.541,1.223,1.848,1.848,0,0,1-1.278.487Zm.77-3.428h1.4a.9.9,0,0,0,.7-.289.921.921,0,0,0,.264-.633.916.916,0,0,0-.256-.628.861.861,0,0,0-.674-.285h-1.434Zm0,2.69h1.551a.921.921,0,0,0,.721-.31,1,1,0,0,0,.276-.679.963.963,0,0,0-.285-.674.97.97,0,0,0-.746-.306h-1.517Z" fill="#a6a6a6"/></g></svg>