<svg xmlns="http://www.w3.org/2000/svg" width="13" height="16" viewBox="0 0 13 16"><path d="M55.567,0A6.472,6.472,0,0,0,49.33,5.761,6.307,6.307,0,0,0,49.417,7.6h0s.01.069.043.2A6.32,6.32,0,0,0,49.9,9.062a18.533,18.533,0,0,0,5.539,6.81.573.573,0,0,0,.722,0A18.514,18.514,0,0,0,61.7,9.058a6.051,6.051,0,0,0,.438-1.266c.03-.128.043-.2.043-.2h0A6.3,6.3,0,0,0,62.3,6.381,6.444,6.444,0,0,0,55.567,0ZM55.8,9.557a3.1,3.1,0,1,1,3.157-3.1A3.129,3.129,0,0,1,55.8,9.557Z" transform="translate(-49.299 0)" fill="#393185"/></svg>