<svg xmlns="http://www.w3.org/2000/svg" width="21.094" height="24" viewBox="0 0 21.094 24"><path d="M358.25,24h.785a3.52,3.52,0,0,0,3.516-3.516V3.516A3.52,3.52,0,0,0,359.035,0h-.785a4.9,4.9,0,0,1,1.488,3.516V20.484A4.9,4.9,0,0,1,358.25,24Zm0,0" transform="translate(-341.457 0)" fill="#ccc"/><path d="M91.516,137.447h1.366a9.577,9.577,0,0,1,.582-2.88A4.207,4.207,0,0,0,91.516,137.447Zm0,0" transform="translate(-87.226 -128.259)" fill="#ccc"/><path d="M152.021,121c-.449,0-1.231,1.324-1.376,3.516H153.4C153.252,122.324,152.47,121,152.021,121Zm0,0" transform="translate(-143.583 -115.328)" fill="#ccc"/><path d="M152.021,229.516c.449,0,1.232-1.323,1.376-3.516h-2.752C150.79,228.193,151.572,229.516,152.021,229.516Zm0,0" transform="translate(-143.583 -215.406)" fill="#ccc"/><path d="M226.934,134.566a9.56,9.56,0,0,1,.582,2.879h1.365A4.206,4.206,0,0,0,226.934,134.566Zm0,0" transform="translate(-216.296 -128.259)" fill="#ccc"/><path d="M226.934,228.879A4.2,4.2,0,0,0,228.882,226h-1.365A9.548,9.548,0,0,1,226.934,228.879Zm0,0" transform="translate(-216.296 -215.407)" fill="#ccc"/><path d="M13.359,0H3.516A3.52,3.52,0,0,0,0,3.516V20.484A3.52,3.52,0,0,0,3.516,24h9.844a3.52,3.52,0,0,0,3.516-3.516V3.516A3.52,3.52,0,0,0,13.359,0ZM10.547,21.188H6.328a.7.7,0,0,1,0-1.406h4.219a.7.7,0,0,1,0,1.406Zm1.406-2.813H4.922a.7.7,0,1,1,0-1.406h7.031a.7.7,0,0,1,0,1.406ZM8.437,15.516a5.625,5.625,0,1,1,5.625-5.625A5.631,5.631,0,0,1,8.437,15.516Zm0,0" transform="translate(0 0)" fill="#ccc"/><path d="M91.516,226a4.207,4.207,0,0,0,1.948,2.88,9.574,9.574,0,0,1-.582-2.88Zm0,0" transform="translate(-87.226 -215.406)" fill="#ccc"/></svg>