<svg xmlns="http://www.w3.org/2000/svg" width="24" height="24" viewBox="0 0 24 24"><path d="M23.462,19.376l-3.706-3.715a1.929,1.929,0,0,0-2.725.051l-1.867,1.871-.368-.205A18.583,18.583,0,0,1,10.3,14.122a18.728,18.728,0,0,1-3.255-4.51c-.069-.125-.135-.246-.2-.361L8.1,8l.616-.618a1.938,1.938,0,0,0,.05-2.731L5.06.933A1.927,1.927,0,0,0,2.335.984L1.291,2.037l.029.028A6.058,6.058,0,0,0,.458,3.587,6.321,6.321,0,0,0,.075,5.131C-.414,9.2,1.44,12.914,6.472,17.957c6.955,6.971,12.56,6.444,12.8,6.418a6.251,6.251,0,0,0,1.544-.389,6.016,6.016,0,0,0,1.513-.859l.023.02,1.058-1.039A1.942,1.942,0,0,0,23.462,19.376Z" transform="translate(0 -0.394)" fill="#e5097f"/></svg>