<svg id="_2524085714304" xmlns="http://www.w3.org/2000/svg" width="40.537" height="32" viewBox="0 0 40.537 32">
  <path id="Контур_1" data-name="Контур 1" d="M0,32l40.537-5.406V0L0,5.406ZM2.1,7.241,38.44,2.4V24.759L2.1,29.6Z" fill="#f43e36"/>
  <g id="Сгруппировать_1" data-name="Сгруппировать 1" transform="translate(5.463 6.407)">
    <path id="Контур_2" data-name="Контур 2" d="M114.657,143.39a5.309,5.309,0,0,0,1.1.405,2.636,2.636,0,0,0,.882.043,1.319,1.319,0,0,0,.7-.286.672.672,0,0,0,.262-.524c0-.286-.31-.567-.934-.839-.1-.043-.176-.081-.234-.1l-.472-.2a2.452,2.452,0,0,1-1.025-.748,1.732,1.732,0,0,1-.334-1.073,2.009,2.009,0,0,1,.639-1.473,2.793,2.793,0,0,1,1.649-.763,4.085,4.085,0,0,1,.81-.024,7.483,7.483,0,0,1,.968.138v1.645a4.837,4.837,0,0,0-.963-.362,2.093,2.093,0,0,0-.772-.071,1.048,1.048,0,0,0-.558.229.557.557,0,0,0-.2.439.479.479,0,0,0,.119.324.927.927,0,0,0,.362.243l.82.343a3.63,3.63,0,0,1,1.387.868,1.68,1.68,0,0,1,.358,1.1,2.425,2.425,0,0,1-.7,1.749,3.067,3.067,0,0,1-1.854.882,5.434,5.434,0,0,1-.853.033,7.694,7.694,0,0,1-1.011-.119Zm7.961-4.81-.229.033v1.869l.3-.043a1.805,1.805,0,0,0,.968-.377.944.944,0,0,0,.334-.748.681.681,0,0,0-.329-.658A1.77,1.77,0,0,0,122.618,138.581Zm-1.9,5.978v-7.012l1.8-.243a5.509,5.509,0,0,1,1.32-.057,2.081,2.081,0,0,1,.868.291,1.6,1.6,0,0,1,.605.629,1.824,1.824,0,0,1,.214.877,2.37,2.37,0,0,1-.758,1.788,3.578,3.578,0,0,1-2.055.9c-.091.014-.157.019-.2.024s-.086,0-.124.01v2.565Zm7-3.165,1.84-.248-.91-2.074Zm-2.627,2.579,3.58-7.708.1-.014,3.494,6.759-1.749.234-.443-.958-2.846.381-.453,1.082Zm13.176-6.559a2.809,2.809,0,0,0-.92-.572,2.122,2.122,0,0,0-.982-.1,2.193,2.193,0,0,0-1.454.81,2.524,2.524,0,0,0-.567,1.654,1.912,1.912,0,0,0,.563,1.482,1.707,1.707,0,0,0,1.463.4,2.948,2.948,0,0,0,1.063-.367,5.225,5.225,0,0,0,1.058-.81l-.11,1.878a4.221,4.221,0,0,1-.982.6,4.1,4.1,0,0,1-1.111.31,3.526,3.526,0,0,1-1.187-.033,3.066,3.066,0,0,1-1.049-.429,2.965,2.965,0,0,1-1.039-1.158,3.584,3.584,0,0,1-.358-1.621,4.287,4.287,0,0,1,.267-1.5,4.4,4.4,0,0,1,.772-1.311,4.253,4.253,0,0,1,1.187-.958,4.094,4.094,0,0,1,1.416-.467,3.692,3.692,0,0,1,1.125.014,3.213,3.213,0,0,1,1.025.362Zm1.6,4.576v-7.012l4.319-.577v1.444l-2.693.362v1.268l2.307-.31V138.6l-2.307.31V140.3l2.731-.367v1.478Z" transform="translate(-114.6 -134.4)" fill="#fff"/>
    <path id="Контур_3" data-name="Контур 3" d="M229.027,349.95l1.845-.248-.915-2.074Zm-2.627,2.579,3.575-7.708.1-.014,3.5,6.759-1.749.234-.443-.963-2.846.381-.453,1.082Zm9.9-7.05-.229.033v1.873l.3-.043a1.805,1.805,0,0,0,.968-.377.945.945,0,0,0,.334-.748.681.681,0,0,0-.329-.658A1.757,1.757,0,0,0,236.3,345.479Zm-1.9,5.978v-7.012l1.8-.243a5.5,5.5,0,0,1,1.32-.057,2.081,2.081,0,0,1,.868.291,1.6,1.6,0,0,1,.605.629,1.824,1.824,0,0,1,.215.877,2.37,2.37,0,0,1-.758,1.788,3.577,3.577,0,0,1-2.055.9c-.091.009-.157.019-.2.024s-.086,0-.124.009v2.565Zm8.042-6.8-.229.033v1.873l.3-.043a1.806,1.806,0,0,0,.968-.377.944.944,0,0,0,.334-.748.681.681,0,0,0-.329-.658A1.763,1.763,0,0,0,242.441,344.654Zm-1.9,5.978v-7.012l1.8-.243a5.5,5.5,0,0,1,1.32-.057,2.081,2.081,0,0,1,.868.291,1.6,1.6,0,0,1,.605.629,1.823,1.823,0,0,1,.215.877,2.37,2.37,0,0,1-.758,1.788,3.578,3.578,0,0,1-2.055.9c-.091.01-.157.019-.2.024s-.086,0-.124.01V350.4Z" transform="translate(-221.071 -333.342)" fill="#fff"/>
  </g>
</svg>
