<svg xmlns="http://www.w3.org/2000/svg" width="705" height="353" viewBox="0 0 705 353"><defs><linearGradient id="ddoqa" x1="616.5" x2="616.5" y1="313" y2="293" gradientUnits="userSpaceOnUse"><stop offset="0" stop-color="#fafafa"/><stop offset="1" stop-color="#efefef"/></linearGradient><linearGradient id="ddoqb" x1="616.5" x2="616.5" y1="333" y2="313" gradientUnits="userSpaceOnUse"><stop offset="0" stop-color="#fafafa"/><stop offset="1" stop-color="#efefef"/></linearGradient><linearGradient id="ddoqc" x1="616.5" x2="616.5" y1="353" y2="333" gradientUnits="userSpaceOnUse"><stop offset="0" stop-color="#fafafa"/><stop offset="1" stop-color="#efefef"/></linearGradient><linearGradient id="ddoqd" x1="113.5" x2="113.5" y1="313" y2="293" gradientUnits="userSpaceOnUse"><stop offset="0" stop-color="#fafafa"/><stop offset="1" stop-color="#efefef"/></linearGradient><linearGradient id="ddoqe" x1="113.5" x2="113.5" y1="333" y2="313" gradientUnits="userSpaceOnUse"><stop offset="0" stop-color="#fafafa"/><stop offset="1" stop-color="#efefef"/></linearGradient><linearGradient id="ddoqf" x1="113.5" x2="113.5" y1="353" y2="333" gradientUnits="userSpaceOnUse"><stop offset="0" stop-color="#fafafa"/><stop offset="1" stop-color="#efefef"/></linearGradient></defs><g><g transform="rotate(90 352.5 176.5)"><path fill="#fff" d="M196 529c-11.046 0-20-8.954-20-20v-665c0-11.046 8.954-20 20-20h313c11.046 0 20 8.954 20 20v665c0 11.046-8.954 20-20 20z"/></g><g transform="rotate(90 690 176.5)"><path fill="#a3c6e8" d="M548.5 191.5c-8.284 0-15-6.716-15-15v-15h313v15c0 8.284-6.716 15-15 15z"/></g><g transform="rotate(90 5 176.5)"><path fill="#a3c6e8" d="M-101.5 181.5v-5a5 5 0 0 1 5-5h203a5 5 0 0 1 5 5v5z"/></g><g><path fill="#333" d="M622 46.237v12.436A7 7 0 0 0 618 65a7 7 0 0 0 4 6.327v12.436c-9.056-1.442-16-9.306-16-18.763 0-9.456 6.944-17.321 16-18.763zm6 25.09a7.002 7.002 0 0 0 0-12.653V46.237c9.056 1.442 16 9.307 16 18.763 0 9.457-6.944 17.32-16 18.763zM625 90a24.927 24.927 0 0 0 17.678-7.322A24.92 24.92 0 0 0 650 65a24.916 24.916 0 0 0-7.322-17.678A24.92 24.92 0 0 0 625 40a24.916 24.916 0 0 0-17.678 7.322A24.916 24.916 0 0 0 600 65a24.92 24.92 0 0 0 7.322 17.678A24.923 24.923 0 0 0 625 90z"/></g><g><path fill="url(#ddoqa)" d="M588 313v-10c0-5.523 4.477-10 10-10h37c5.523 0 10 4.477 10 10v10z"/></g><g><path fill="url(#ddoqb)" d="M588 333v-20h57v20z"/></g><g><path fill="url(#ddoqc)" d="M588 353v-20h57v20z"/></g><g><path fill="url(#ddoqd)" d="M85 313v-10c0-5.523 4.477-10 10-10h37c5.523 0 10 4.477 10 10v10z"/></g><g><path fill="url(#ddoqe)" d="M85 333v-20h57v20z"/></g><g><path fill="url(#ddoqf)" d="M85 353v-20h57v20z"/></g></g></svg>