<svg xmlns="http://www.w3.org/2000/svg" width="705" height="353" viewBox="0 0 705 353"><g><g transform="rotate(90 352.5 176.5)"><path fill="#fff" d="M196 529c-11.046 0-20-8.954-20-20v-665c0-11.046 8.954-20 20-20h313c11.046 0 20 8.954 20 20v665c0 11.046-8.954 20-20 20z"/></g><g transform="rotate(90 690 176.5)"><path fill="#a3c6e8" d="M548.5 191.5c-8.284 0-15-6.716-15-15v-15h313v15c0 8.284-6.716 15-15 15z"/></g><g transform="rotate(90 5 176.5)"><path fill="#a3c6e8" d="M-101.5 181.5v-5a5 5 0 0 1 5-5h203a5 5 0 0 1 5 5v5z"/></g></g></svg>