<svg xmlns="http://www.w3.org/2000/svg" width="353" height="705" viewBox="0 0 353 705">
  <g id="Сгруппировать_518" data-name="Сгруппировать 518" transform="translate(-521 -1280)">
    <rect id="Прямоугольник_70" data-name="Прямоугольник 70" width="353" height="705" rx="20" transform="translate(521 1280)" fill="#fff"/>
    <path id="Прямоугольник_203" data-name="Прямоугольник 203" d="M0,0H313a0,0,0,0,1,0,0V15a15,15,0,0,1-15,15H15A15,15,0,0,1,0,15V0A0,0,0,0,1,0,0Z" transform="translate(541 1280)" fill="#a3c6e8"/>
    <path id="Прямоугольник_210" data-name="Прямоугольник 210" d="M10,0H203a10,10,0,0,1,10,10v0a0,0,0,0,1,0,0H0a0,0,0,0,1,0,0v0A10,10,0,0,1,10,0Z" transform="translate(591 1975)" fill="#a3c6e8"/>
  </g>
</svg>
