<svg xmlns="http://www.w3.org/2000/svg" width="16" height="16" viewBox="0 0 16 16"><path d="M69.9,63.24c2.142,0,2.388.012,3.237.049a4.527,4.527,0,0,1,1.489.271,2.556,2.556,0,0,1,.923.6,2.455,2.455,0,0,1,.6.923,4.152,4.152,0,0,1,.271,1.489c.037.849.049,1.1.049,3.237s-.012,2.388-.049,3.237a4.526,4.526,0,0,1-.271,1.489,2.556,2.556,0,0,1-.6.923,2.455,2.455,0,0,1-.923.6,4.152,4.152,0,0,1-1.489.271c-.849.037-1.1.049-3.237.049s-2.388-.012-3.237-.049a4.527,4.527,0,0,1-1.489-.271,2.556,2.556,0,0,1-.923-.6,2.455,2.455,0,0,1-.6-.923,4.152,4.152,0,0,1-.271-1.489c-.037-.849-.049-1.1-.049-3.237s.012-2.388.049-3.237a4.526,4.526,0,0,1,.271-1.489,2.556,2.556,0,0,1,.6-.923,2.455,2.455,0,0,1,.923-.6,4.152,4.152,0,0,1,1.489-.271c.837-.037,1.1-.049,3.237-.049m0-1.44c-2.178,0-2.449.012-3.3.049a5.859,5.859,0,0,0-1.945.369,4.1,4.1,0,0,0-2.338,2.338,5.859,5.859,0,0,0-.369,1.945c-.037.849-.049,1.132-.049,3.3s.012,2.449.049,3.3a5.859,5.859,0,0,0,.369,1.945,4.1,4.1,0,0,0,2.338,2.338,5.859,5.859,0,0,0,1.945.369c.849.037,1.132.049,3.3.049s2.449-.012,3.3-.049a5.858,5.858,0,0,0,1.945-.369,4.1,4.1,0,0,0,2.338-2.338,5.858,5.858,0,0,0,.369-1.945c.037-.849.049-1.132.049-3.3s-.012-2.449-.049-3.3a5.858,5.858,0,0,0-.369-1.945,4.1,4.1,0,0,0-2.338-2.338,5.859,5.859,0,0,0-1.945-.369c-.849-.037-1.132-.049-3.3-.049Z" transform="translate(-61.9 -61.8)" fill="#fff"/><path d="M97.611,93.5a4.111,4.111,0,1,0,4.111,4.111A4.11,4.11,0,0,0,97.611,93.5Zm0,6.782a2.671,2.671,0,1,1,2.671-2.671A2.668,2.668,0,0,1,97.611,100.282Z" transform="translate(-89.611 -89.598)" fill="#fff"/><circle cx="0.96" cy="0.96" r="0.96" transform="translate(11.311 2.769)" fill="#fff"/></svg>