<svg xmlns="http://www.w3.org/2000/svg" width="285" height="48.42" viewBox="0 0 285 48.42"><g transform="translate(0 0)"><path d="M2141.1,54.967a2.173,2.173,0,0,1-.427.97,18.711,18.711,0,0,1-2.147,2.224,30.252,30.252,0,0,1-2.817,2.117c-1.031.669-2.089,1.3-3.164,1.882a34.559,34.559,0,0,1-3.167,1.528,24.037,24.037,0,0,1-2.99,1.069,12.563,12.563,0,0,1-2.74.472q-2.931.148-4.26-1.16a2.675,2.675,0,0,1-.406-.5c-.217.1-.437.19-.655.278a8.538,8.538,0,0,1-1.337.423,7.937,7.937,0,0,1-1.471.206,4.149,4.149,0,0,1-2.05-.328,2.744,2.744,0,0,1-1.164-1.085,4.414,4.414,0,0,1-.525-1.619,17.84,17.84,0,0,1-.138-1.918,8.094,8.094,0,0,0-.356-2.149c-.174-.525-.41-.78-.676-.767a1.8,1.8,0,0,0-.676.164,3.3,3.3,0,0,0-.844.624c-.342.315-.781.766-1.332,1.361s-1.311,1.39-2.252,2.38c-.319.339-.713.718-1.171,1.141s-.92.829-1.409,1.218a17.107,17.107,0,0,1-1.422,1.043,5.486,5.486,0,0,1-1.242.639,2.315,2.315,0,0,1-.751-.235q-.48.32-.976.631a13.967,13.967,0,0,1-2.371,1.229,6.689,6.689,0,0,1-2.14.5,5.4,5.4,0,0,1-2.036-.242,3.98,3.98,0,0,1-1.458-.855c-.085-.078-.168-.16-.246-.244a2.954,2.954,0,0,1-.555.282,3.962,3.962,0,0,1-.62.188,3.635,3.635,0,0,1-.572.075c-.851.042-1.7.08-2.539.121a14.233,14.233,0,0,0-1.7.2c-.628.106-1.255.238-1.889.38s-1.269.3-1.9.477-1.212.339-1.756.488c-.893.266-1.729.495-2.5.7a9.87,9.87,0,0,1-2.022.344,4.248,4.248,0,0,1-1.255-.1,2.428,2.428,0,0,1-.871-.408,1.724,1.724,0,0,1-.5-.622,1.976,1.976,0,0,1-.188-.743,10.911,10.911,0,0,1,.118-1.777,62.666,62.666,0,0,1,1.729-7.2,27.045,27.045,0,0,0,1.108-7.421c-.024-2.623-.767-4.356-.272-6.333a1.8,1.8,0,0,1,.4-.737,1.861,1.861,0,0,1,.754-.477,4,4,0,0,1,1.2-.209,2.76,2.76,0,0,1,1.1.138,1.8,1.8,0,0,1,.691.462,4.666,4.666,0,0,1,.376.67c1.526,2.4.95,6.314-.07,10.2s-2.566,7.751-2.824,10.04a6.646,6.646,0,0,0-.035.748.979.979,0,0,0,.042.292c.028.094.077.136.14.133a6.011,6.011,0,0,0,.927-.138c.382-.083.8-.18,1.241-.294s.914-.245,1.387-.387.935-.268,1.339-.391l.579-.135c.279-.069.613-.141,1-.23s.788-.169,1.212-.258.83-.167,1.214-.242.724-.136,1.025-.186.5-.074.613-.078a8,8,0,0,0,.879-.115c.425-.061.928-.108,1.5-.135l.241-.009a9.2,9.2,0,0,1-.214-1.619c-.027-.574-.034-1.125-.014-1.64,0-.2.036-.508.07-.915s.1-.833.16-1.284.119-.889.182-1.309a5.44,5.44,0,0,1,.188-1,2.892,2.892,0,0,1,1.143-1.4,3.6,3.6,0,0,1,2.01-.7,1.007,1.007,0,0,1,1.192,1.077,6.009,6.009,0,0,1-.057,1.139c-.049.4-.118.8-.2,1.184-.14.711-.244,1.346-.32,1.916s-.12,1.064-.147,1.5a10.76,10.76,0,0,0,.007,1.424,6.658,6.658,0,0,0,.209,1.217,2.314,2.314,0,0,0,.425.855.822.822,0,0,0,.684.294,7.278,7.278,0,0,0,1.074-.126,5.989,5.989,0,0,0,1.361-.49q.791-.379,1.656-.889,0-.327.044-.693a22.568,22.568,0,0,1,.424-2.308c.091-.454.2-.937.3-1.44s.216-1.011.335-1.523.25-1.011.41-1.507a8.8,8.8,0,0,1,.586-1.381,1.878,1.878,0,0,1,.445-.565,2.1,2.1,0,0,1,.518-.332,2.621,2.621,0,0,1,.572-.154,5.772,5.772,0,0,1,.592-.057,1.241,1.241,0,0,1,.515.086,1.439,1.439,0,0,1,.453.292,1.5,1.5,0,0,1,.335.477,1.806,1.806,0,0,1,.147.657,2.775,2.775,0,0,1-.042.639,5.282,5.282,0,0,1-.161.638c-.069.219-.146.451-.222.7s-.153.519-.244.834c-.056.2-.14.47-.257.79s-.245.655-.364,1c-.145.347-.265.686-.4,1.017a8.45,8.45,0,0,0-.253.829c.238-.211.5-.474.809-.788s.614-.654.942-1.024.649-.736.975-1.116.636-.738.942-1.082c.4-.441.782-.858,1.157-1.248a8.355,8.355,0,0,1,1.214-1.035,6.434,6.434,0,0,1,1.4-.714,6,6,0,0,1,1.729-.316,3.934,3.934,0,0,1,1.875.3,2.948,2.948,0,0,1,1.205,1,4.994,4.994,0,0,1,.719,1.582,12.286,12.286,0,0,1,.314,2.008c.014.373.042.756.063,1.146a3.7,3.7,0,0,0,.195,1.059,1.615,1.615,0,0,0,.431.764,1.116,1.116,0,0,0,.851.266,5.434,5.434,0,0,0,1.5-.32,9.606,9.606,0,0,1,.142-1.031c.14-.747.284-1.486.459-2.221a17.694,17.694,0,0,1,.635-2.18,11.39,11.39,0,0,1,1.066-2.135,11.95,11.95,0,0,1,1.675-2.078,6.608,6.608,0,0,1,.87-.728,7.8,7.8,0,0,1,2.281-1.115,5.046,5.046,0,0,1,1.269-.221,4.153,4.153,0,0,1,1.624.213,3.117,3.117,0,0,1,1.151.722,2.965,2.965,0,0,1,.7,1.075,4.022,4.022,0,0,1,.278,1.308,4.165,4.165,0,0,1-1.025,2.707,15.274,15.274,0,0,1-3.27,2.967q-.722.494-1.695,1.072l-2.209,1.317a1.244,1.244,0,0,0,.091.664,1.279,1.279,0,0,0,.467.52,2.25,2.25,0,0,0,.794.336,4.357,4.357,0,0,0,1.158.073,11.07,11.07,0,0,0,1.855-.265,20.267,20.267,0,0,0,2.036-.574q1.033-.352,2.035-.785c.662-.294,1.283-.595,1.841-.9a32.907,32.907,0,0,0,2.817-1.76c.85-.626,1.666-1.265,2.412-1.912.293-.266.586-.535.886-.806a2.99,2.99,0,0,1,1.617-.78.545.545,0,0,1,.495.175.567.567,0,0,1,.146.331Zm-44.99-9.093a2.29,2.29,0,0,1-.128.91,2.837,2.837,0,0,1-.466.826,2.592,2.592,0,0,1-2.023.855,6.819,6.819,0,0,1-1-.029,5.18,5.18,0,0,1-.92-.161,2.088,2.088,0,0,1-.683-.3.57.57,0,0,1-.287-.451,1.907,1.907,0,0,1,.23-.959,3.959,3.959,0,0,1,.683-.951,4.362,4.362,0,0,1,.949-.754,2.251,2.251,0,0,1,1.017-.325,7.743,7.743,0,0,1,1.089.016,2.612,2.612,0,0,1,.814.19,1.179,1.179,0,0,1,.517.417A1.368,1.368,0,0,1,2096.112,45.874Zm31.156,7.072a2.62,2.62,0,0,0-.1-.6.5.5,0,0,0-.279-.347,2.458,2.458,0,0,0-1.249.477,5.069,5.069,0,0,0-1.234,1.251,8.447,8.447,0,0,0-1,1.908,16.048,16.048,0,0,0-.745,2.443c.579-.363,1.156-.738,1.722-1.136a11.707,11.707,0,0,0,1.485-1.234,5.936,5.936,0,0,0,1.047-1.322A2.525,2.525,0,0,0,2127.268,52.947Z" transform="translate(-1856.103 -38.681)" fill="#393185"/><path d="M34.976,9.221c-4.664-.01-5.327-.008-5.327-.006-.179,1.888-.294,3.776-.41,5.668.339,0,.72.005,1.1.008a1.824,1.824,0,0,1,1.287.331,1.54,1.54,0,0,1,.285,1.2c-.01.167-.054.365-.09.6-.038.257-.1.544-.173.869-.794,3.435-1.5,6.867-2.082,10.285-.575,3.394-.979,6.77-1.335,10.117-1.786-2.521-4.6-10.725-5.743-20.447.053-.344-.02-1.111,0-1.535a1.578,1.578,0,0,1,.429-1.156,1.839,1.839,0,0,1,1.3-.316c.4,0,.784.007,1.207.018.136-1.891.271-3.772.449-5.653-4.41-.017-8.78-.03-13.169-.051-.211,1.817-.379,3.638-.5,5.452.317.009.677.018,1.014.025a1.76,1.76,0,0,1,1.539,1.189,12.244,12.244,0,0,1,.852,3.635c.7,8.2,4.716,19.577,9.091,28.914,2.526.281,5.082.5,7.636.724A127.067,127.067,0,0,1,33.2,34.169c.637-5.067,1.663-10.179,2.776-15.311a8.277,8.277,0,0,1,1.1-3.1,1.9,1.9,0,0,1,1.607-.809c.276,0,.553,0,.712,0,.222,0,.6.007,1.006.008.785,0,1.249.183,1.446.542a7.768,7.768,0,0,1,.177,2.911c-.141,3.7-.213,7.39-.122,11.077s.372,7.359.757,11.021a7.8,7.8,0,0,1,.008,2.894c-.157.357-.634.547-1.417.534-.381-.005-.74-.016-1.143-.017.31,1.883.6,3.758.977,5.62q10.456.1,20.834-.55c-.456-2.745-.89-5.5-1.194-8.261s-.5-5.537-.676-8.321c-1.133.056-2.288.116-3.443.172.07,2.5.053,4.434-.033,5.848a11.045,11.045,0,0,1-.591,3.363,2.552,2.552,0,0,1-1.153,1.453,7.318,7.318,0,0,1-2.879.521c-.491.021-1,.022-1.49.028-.491-4.207-.926-8.428-1.1-12.668s-.076-8.5.057-12.755a2.478,2.478,0,0,1,0-.291,6.214,6.214,0,0,1,.446-2.673,1.778,1.778,0,0,1,1.473-.483c.424,0,.849-.005,1.253,0,.074-1.894.168-3.789.306-5.683L34.976,9.221Zm38.508,20.4c-.39-1.914-.791-3.826-1.128-5.749s-.651-3.844-.911-5.778q-.571,2.942-1.014,5.882c-.3,1.975-.6,3.959-.812,5.943Q71.553,29.772,73.484,29.622Zm1.006,17.95c-.3-1.8-.559-3.608-.816-5.427.324-.037.649-.081.973-.121a2.9,2.9,0,0,0,1.508-.426,1.15,1.15,0,0,0,.184-.943,5.994,5.994,0,0,0-.127-.849c-.079-.273-.133-.524-.221-.782-.415-1.326-.786-2.665-1.135-4.008-2,.2-3.985.4-5.966.589-.128,1.269-.234,2.533-.339,3.793-.045.579-.071,1.033-.1,1.359a4.95,4.95,0,0,0,.035.892,1.052,1.052,0,0,0,.5.761,1.966,1.966,0,0,0,1.184.167c.368-.044.714-.091,1.081-.137.253,1.841.509,3.66.828,5.478-3.263.395-6.523.768-9.811,1.043-.314-1.853-.606-3.719-.853-5.593.279-.017.536-.038.793-.057a1.57,1.57,0,0,0,1.306-1.054,10.994,10.994,0,0,0,.63-3.191c.516-5.057,1.224-10.1,2.191-15.092.96-4.971,2.17-9.89,3.391-14.748q3.979,0,7.96-.017c.615,4.641,1.3,9.284,2.147,13.9s1.969,9.177,3.216,13.709A9.823,9.823,0,0,0,84.354,40a1.591,1.591,0,0,0,1.454.344c.369-.06.74-.122,1.132-.188.208,1.715.482,3.607.734,5.315-4.371.849-8.775,1.431-13.183,2.1Zm12-15.7c1.061-.141,2.124-.287,3.163-.429a12.726,12.726,0,0,0,3.127,6,4.783,4.783,0,0,0,4.476,1.419,3.44,3.44,0,0,0,2.238-1.471,4,4,0,0,0,.64-2.7c-.157-1.608-1.539-2.737-4.172-3.424-.878-.227-1.55-.418-2.055-.587a30.67,30.67,0,0,1-3.668-1.42,6.48,6.48,0,0,1-1.886-1.285,9.36,9.36,0,0,1-2.035-3.391,13.521,13.521,0,0,1-.642-4.465,14.291,14.291,0,0,1,2.742-8.753,8.12,8.12,0,0,1,6.638-3.211,11.55,11.55,0,0,1,7.131,2.381c.249-.53.457-1.061.686-1.592,1.061,0,2.123,0,3.163-.009-.1,1.78-.209,3.572-.281,5.371s-.1,3.618-.12,5.436c-1.247.115-2.495.227-3.7.337a9.459,9.459,0,0,0-1.94-5.01,4.756,4.756,0,0,0-3.946-1.55,3.426,3.426,0,0,0-2.482,1.122,3.787,3.787,0,0,0-1.009,2.611c-.041,1.544,1.155,2.615,3.57,3.2.614.149,1.064.26,1.412.348,3.371.861,5.735,2.055,7.121,3.569s2.115,3.675,2.322,6.546a13.443,13.443,0,0,1-1.714,8.272,10.017,10.017,0,0,1-10,4.811,11.571,11.571,0,0,1-3.826-1.361c-.193.715-.365,1.43-.513,2.133-.986.215-2,.433-2.982.64-.34-2.248-.626-4.507-.891-6.756s-.421-4.525-.57-6.776Zm28.823-18.341a3.345,3.345,0,0,0-2.834,1.764,10.218,10.218,0,0,0-1.059,4.913.95.95,0,0,1-.019.125c-1.1.111-2.155.219-3.232.326.038-1.946.088-3.89.156-5.818s.154-3.836.27-5.735q11.528-.039,23.1-.065c-.062,1.535-.187,3.078-.252,4.621-.066,1.564-.132,3.125-.157,4.7-1.077.1-2.132.206-3.208.3a.22.22,0,0,1-.005-.107,7.149,7.149,0,0,0-.826-4.089,2.86,2.86,0,0,0-2.727-1.326c-.342.015-.641.027-.941.043-.136,2.731-.255,5.493-.249,8.27s.108,5.6.3,8.412a3.2,3.2,0,0,0,.5,1.909c.24.213.75.226,1.52.054.57-.128,1.185-.262,1.8-.4.085,1.261.213,2.526.364,3.779-4.707,1.237-9.4,2.5-14.041,3.761-.209-1.432-.374-2.866-.519-4.3.549-.122,1.121-.261,1.671-.388a2.378,2.378,0,0,0,1.4-.677,4.665,4.665,0,0,0,.151-2.263c-.21-3.005-.355-6.011-.384-8.991s.067-5.929.168-8.857c-.32.011-.64.026-.94.038Zm40.633-4.5c-.054,1.2-.191,2.4-.247,3.609s-.111,2.43-.149,3.656c-1.178.077-2.336.154-3.494.24a12.406,12.406,0,0,0-.613-2.271,3.565,3.565,0,0,0-.844-1.293,3.4,3.4,0,0,0-1.473-.79,12,12,0,0,0-2.9-.166c-.235.006-.448.011-.64.02-.938.026-1.9.048-2.834.079-.068,1.011-.157,2.024-.183,3.038s-.074,2.036-.079,3.057c.28-.025.58-.054.84-.078a2.966,2.966,0,0,0,2.13-.9,4.459,4.459,0,0,0,.7-2.553,1.761,1.761,0,0,1-.015-.184c.92-.052,1.861-.1,2.78-.143-.091,1.59-.163,3.2-.194,4.805s0,3.237.051,4.861c-.931.134-1.821.263-2.733.4a5.267,5.267,0,0,0-.665-2.909,2.286,2.286,0,0,0-2.054-.445c-.3.035-.6.07-.887.108-.007,1.175-.005,2.364.061,3.537s.13,2.371.206,3.555c1.267-.24,2.536-.482,3.842-.714a12.88,12.88,0,0,0,3.051-.808,3.091,3.091,0,0,0,1.25-1.118,6.675,6.675,0,0,0,.739-1.948,12.351,12.351,0,0,0,.348-2.73c1.208-.132,2.4-.265,3.625-.393.025,1.38.019,2.767.053,4.146s.111,2.783.175,4.189q-11.38,2.226-22.666,4.958c-.138-1.2-.234-2.393-.35-3.589.35-.068.724-.142,1.116-.223a2.69,2.69,0,0,0,1.381-.578,2.685,2.685,0,0,0,.238-1.718.794.794,0,0,1-.016-.18c-.153-2.221-.2-4.44-.207-6.646s.1-4.377.2-6.549a2.634,2.634,0,0,0-.256-1.682c-.189-.2-.678-.293-1.467-.267-.384.012-.746.027-1.087.038.067-1.144.131-2.281.2-3.416q11.555-.014,23.065-.005Zm15.694.048c-.035.8-.093,1.6-.129,2.4-.424,0-.828.006-1.254.012a3.325,3.325,0,0,0-1.434.226c-.247.148-.373.53-.429,1.16,0,.048.008.086,0,.133-.129,1.839-.239,3.7-.288,5.564s-.015,3.76.019,5.646c.475-.054.972-.12,1.448-.179a20.072,20.072,0,0,0,2.9-.5,3.287,3.287,0,0,0,1.321-.741,3.623,3.623,0,0,0,.95-1.514,9.976,9.976,0,0,0,.461-2.5c1.137-.078,2.3-.159,3.429-.228-.024,1.145-.026,2.29-.052,3.443s-.031,2.315-.037,3.481q-10.283,1.285-20.435,2.974c-.05-.94-.1-1.874-.128-2.813.347-.051.715-.1,1.062-.151a2.872,2.872,0,0,0,1.494-.474,2.082,2.082,0,0,0,.3-1.44c-.048-1.743-.07-3.476-.043-5.2s.137-3.437.245-5.14c.046-.723-.031-1.166-.225-1.325a2.706,2.706,0,0,0-1.5-.216c-.362.008-.744.015-1.085.022.071-.892.121-1.783.17-2.674q6.617.012,13.234.038Zm22.6.13c0,.686-.036,1.368-.056,2.058-.383,0-.743,0-1.1,0a3.437,3.437,0,0,0-1.519.221c-.232.141-.358.492-.393,1.057-.086,1.368-.167,2.734-.215,4.1-.048,1.38-.107,2.76-.137,4.145-.012.582.079.935.327,1.07a3.183,3.183,0,0,0,1.49.108l1.073-.077c-.045.719-.088,1.427-.132,2.142q-6.544.547-13.021,1.219c.032-.776.022-1.552.053-2.324.345-.032.689-.07,1.077-.1a3.362,3.362,0,0,0,1.5-.35,1.468,1.468,0,0,0,.369-1.182c.009-1.451.077-2.9.125-4.343s.143-2.868.223-4.295c.032-.587-.056-.946-.28-1.1a3.182,3.182,0,0,0-1.5-.2l-1.084.008c.05-.745.077-1.492.127-2.242C185.507,9.147,189.895,9.177,194.24,9.211Zm12.079.1c1.337,1.548,2.679,3.093,3.952,4.607s2.623,3.011,3.925,4.5c.024-1,.112-2.006.136-3.009s.063-2,.089-2.993c.015-.535-.089-.854-.319-.974a4.319,4.319,0,0,0-1.48-.174l-1.23,0c.01-.639,0-1.273-.01-1.908,3.242.034,6.462.069,9.7.1.011.622.025,1.239.016,1.861l-.784,0a3.911,3.911,0,0,0-1.49.166c-.233.115-.3.43-.313.946-.045,1.7-.121,3.412-.2,5.122-.079,1.729-.223,3.455-.424,5.2-2.535.068-5.1.164-7.616.275q-1.93-2.4-3.981-4.834c-1.369-1.63-2.709-3.287-4.05-4.947-.068,1.149-.125,2.305-.183,3.459s-.1,2.324-.165,3.489c-.029.557.076.9.292,1.018a3.494,3.494,0,0,0,1.49.116l.983-.048c-.081.674-.117,1.342-.2,2.02-3.257.2-6.492.416-9.729.639.065-.712.086-1.419.151-2.126.343-.029.708-.049,1.091-.069a3.627,3.627,0,0,0,1.508-.29,1.306,1.306,0,0,0,.416-1.071c.067-1.326.082-2.65.132-3.97s.133-2.624.211-3.93c.033-.55-.081-.882-.292-1.018a3.444,3.444,0,0,0-1.519-.2c-.361,0-.721,0-1.061,0,.019-.686.058-1.372.056-2.057,3.644.035,7.246.067,10.891.1Z" transform="translate(-10.932 -7.302)" fill="#393185"/><path d="M1003.92,246.472a1.967,1.967,0,0,0,.291,1.346,1.039,1.039,0,0,0,1.07.244,1.662,1.662,0,0,0,1.1-.686,3,3,0,0,0,.416-1.541,2.07,2.07,0,0,0-.3-1.374,1,1,0,0,0-1.05-.225,1.807,1.807,0,0,0-1.123.738A2.859,2.859,0,0,0,1003.92,246.472Zm-.229-2.051a8.709,8.709,0,0,1,1.652-1.18,7.64,7.64,0,0,1,1.84-.71,4.666,4.666,0,0,1,3.23.043,2.185,2.185,0,0,1,1.04,2.243,3.925,3.925,0,0,1-1.267,2.737,6.046,6.046,0,0,1-3.15,1.51,6.742,6.742,0,0,1-1.828.118,3.931,3.931,0,0,1-1.444-.386c-.01.557-.043,1.114-.073,1.672-.012.234.063.376.207.43a2.2,2.2,0,0,0,.906-.034l.311-.053c-.021.372-.031.746-.042,1.118-2.421.382-4.852.743-7.263,1.082.021-.339.031-.681.052-1.025.156-.022.323-.048.488-.074a2.193,2.193,0,0,0,.81-.23.593.593,0,0,0,.208-.486c.049-.825.089-1.653.135-2.48s.09-1.659.115-2.483c.006-.226-.042-.365-.167-.4a1.834,1.834,0,0,0-.79.085l-.488.118c.01-.343.031-.683.042-1.026l5.507-1.4c-.011.272-.021.543-.031.813Zm14.369-3.666a5.341,5.341,0,0,1,1.248-.958,5.543,5.543,0,0,1,1.454-.56,3.018,3.018,0,0,1,1.86.032,1.064,1.064,0,0,1,.675,1.083,1.593,1.593,0,0,1-.581,1.189,3.143,3.143,0,0,1-1.5.708,2.03,2.03,0,0,1-1.205-.049.653.653,0,0,1-.468-.644.894.894,0,0,1,.239-.592,2.925,2.925,0,0,1,.738-.555c-.083.005-.157.011-.24.023s-.157.026-.228.04a2.394,2.394,0,0,0-1.4.841,2.563,2.563,0,0,0-.54,1.574c-.027.661-.059,1.321-.073,1.979-.005.272.038.446.166.5a1.721,1.721,0,0,0,.842-.035c.229-.043.457-.084.7-.13-.021.422-.031.844-.052,1.266q-3.742.688-7.482,1.395c.032-.4.042-.8.063-1.2.125-.026.249-.053.374-.077a2.109,2.109,0,0,0,.82-.286.7.7,0,0,0,.239-.561c.023-.927.069-1.859.093-2.784.007-.27-.054-.43-.177-.479a1.7,1.7,0,0,0-.82.065c-.125.028-.251.058-.375.088.011-.4.021-.8.031-1.2,1.871-.446,3.751-.893,5.621-1.337C1018.072,240.319,1018.072,240.537,1018.06,240.755Zm17.4.407a4.24,4.24,0,0,1-1.787,2.443,9.782,9.782,0,0,1-3.783,1.323,7.3,7.3,0,0,1-4.291-.273,2.441,2.441,0,0,1-1.5-2.46,4.164,4.164,0,0,1,1.662-3.081,9.7,9.7,0,0,1,4.292-1.951,5.782,5.782,0,0,1,4.041.236,2.86,2.86,0,0,1,1.331,2.809c0,.09,0,.18,0,.268-2.307.416-4.594.834-6.878,1.267a.775.775,0,0,0-.011.153,1.447,1.447,0,0,0,.509,1.285,1.971,1.971,0,0,0,1.528.209,3.1,3.1,0,0,0,1.423-.6,2.223,2.223,0,0,0,.759-1.153C1033.668,241.48,1034.571,241.321,1035.465,241.163Zm-6.869-.755c1.061-.21,2.11-.418,3.18-.625a.385.385,0,0,0,.012-.114,1.266,1.266,0,0,0-.406-1.035,1.476,1.476,0,0,0-1.184-.147,1.978,1.978,0,0,0-1.164.657A1.928,1.928,0,0,0,1028.6,240.408Zm13.561-4.387a7.717,7.717,0,0,1,1.734-1.248,6.938,6.938,0,0,1,2.036-.668,5.077,5.077,0,0,1,1.746-.03,2.176,2.176,0,0,1,1.153.6,7.721,7.721,0,0,1,1.651-1.05,6.661,6.661,0,0,1,1.83-.563,4.054,4.054,0,0,1,2.764.269c.551.366.783,1.1.778,2.2-.005,1.02-.012,2.047-.021,3.067,0,.329.06.537.187.622a1.444,1.444,0,0,0,.831.05l.26-.03c-.021.5-.021,1-.031,1.5-2.182.259-4.354.521-6.535.788q.016-.736.03-1.472a1.491,1.491,0,0,0,.738-.257.858.858,0,0,0,.2-.655c.023-.955.036-1.905.042-2.863a1.459,1.459,0,0,0-.25-.991.969.969,0,0,0-.872-.175,1.542,1.542,0,0,0-1.06.606,2.674,2.674,0,0,0-.333,1.412c-.012.791-.034,1.578-.041,2.367a.959.959,0,0,0,.125.613.77.77,0,0,0,.571.066c.073-.01.156-.022.23-.034-.022.491-.022.981-.031,1.47-2.058.28-4.1.561-6.162.848.01-.476.01-.954.031-1.433.073-.013.146-.023.219-.033a.824.824,0,0,0,.551-.237.941.941,0,0,0,.165-.64c.016-.928.05-1.863.063-2.793a1.3,1.3,0,0,0-.26-.958,1.009,1.009,0,0,0-.883-.148,1.505,1.505,0,0,0-1.04.611,2.588,2.588,0,0,0-.343,1.409c-.01.759-.02,1.518-.041,2.272-.008.3.039.5.155.578a1.027,1.027,0,0,0,.686.046c.031,0,.062-.009.094-.012-.021.476-.021.955-.032,1.429-2.234.34-4.457.68-6.69,1.026.02-.461.02-.926.041-1.391l.373-.062a1.822,1.822,0,0,0,.821-.279.8.8,0,0,0,.229-.637q.025-1.606.062-3.22c.006-.311-.055-.5-.187-.567a1.5,1.5,0,0,0-.82.018c-.125.024-.251.046-.375.072.01-.465.02-.929.02-1.393,1.871-.364,3.741-.706,5.611-1.05C1042.176,235.386,1042.167,235.7,1042.157,236.021Zm17.206-5.859a1.61,1.61,0,0,1,.572-1.185,2.5,2.5,0,0,1,1.4-.629,1.925,1.925,0,0,1,1.382.289,1.186,1.186,0,0,1,.561,1.043,1.557,1.557,0,0,1-.572,1.18,2.433,2.433,0,0,1-1.392.622,2.022,2.022,0,0,1-1.4-.28A1.2,1.2,0,0,1,1059.363,230.162Zm4.354,7.554c0,.335.052.55.177.64a1.365,1.365,0,0,0,.82.072c.125-.012.25-.024.375-.037-.011.511,0,1.025-.011,1.534-2.411.237-4.8.474-7.189.717.009-.5.009-1,.031-1.507.145-.017.28-.033.435-.05a1.557,1.557,0,0,0,.821-.243.857.857,0,0,0,.218-.678c.008-1.159.042-2.321.042-3.484,0-.336-.062-.545-.2-.628a1.419,1.419,0,0,0-.821-.046l-.445.059c0-.5.009-1,.009-1.506,1.923-.256,3.845-.481,5.767-.707,0,.98-.005,1.956-.01,2.933S1063.724,236.74,1063.717,237.715Zm10.815.31a5.113,5.113,0,0,1-1.683,1.238,6,6,0,0,1-2.15.549,4.2,4.2,0,0,1-2.795-.477,2.779,2.779,0,0,1-.8-2.335c.009-1.051.021-2.108.021-3.157,0-.343-.063-.561-.2-.652a1.409,1.409,0,0,0-.83-.072c-.116.011-.219.024-.333.037,0-.511.009-1.026,0-1.539,1.891-.191,3.781-.356,5.683-.527v2.7c0,.9-.024,1.8-.032,2.7a1.393,1.393,0,0,0,.344,1.055,1.308,1.308,0,0,0,1.038.277,1.715,1.715,0,0,0,1.2-.533,1.838,1.838,0,0,0,.438-1.274c.007-.919.01-1.841.01-2.759,0-.353-.065-.579-.2-.673a1.355,1.355,0,0,0-.811-.1l-.426.035c0-.521.01-1.043,0-1.56,1.911-.135,3.835-.242,5.746-.349,0,1.006-.005,2.015,0,3.019s-.01,2.01-.01,3.017a.844.844,0,0,0,.2.667,1.392,1.392,0,0,0,.833.122l.457-.023c-.011.526,0,1.054,0,1.577-1.912.09-3.8.176-5.705.263C1074.542,238.842,1074.532,238.432,1074.532,238.025Zm12.074-6.581a5.365,5.365,0,0,1,1.714-1.056,5.567,5.567,0,0,1,2.048-.294,4.8,4.8,0,0,1,1.735.331,2.957,2.957,0,0,1,1.185.891,5.108,5.108,0,0,1,1.62-.805,5.32,5.32,0,0,1,1.849-.147,4.6,4.6,0,0,1,2.774.923,3.366,3.366,0,0,1,.832,2.5c.009,1.077.012,2.159.02,3.236a.929.929,0,0,0,.2.7,1.555,1.555,0,0,0,.842.222c.083.005.166.013.26.015,0,.528.01,1.054.01,1.579q-3.289-.226-6.556-.459c.01-.53,0-1.058,0-1.588a1.235,1.235,0,0,0,.747-.118c.116-.09.181-.316.177-.663-.007-1.021-.01-2.049-.01-3.076a1.858,1.858,0,0,0-.281-1.123,1.1,1.1,0,0,0-.883-.394,1.134,1.134,0,0,0-1.039.442,2.619,2.619,0,0,0-.322,1.465c.007.857,0,1.712,0,2.57a1.068,1.068,0,0,0,.156.691.767.767,0,0,0,.561.172l.229,0c0,.53.01,1.058.01,1.586q-3.085-.075-6.172-.151c.01-.533,0-1.061,0-1.591.073,0,.146,0,.218.005a.743.743,0,0,0,.561-.154,1.09,1.09,0,0,0,.156-.676c0-1.026-.01-2.053-.01-3.081a1.811,1.811,0,0,0-.281-1.11,1.065,1.065,0,0,0-.894-.351,1.189,1.189,0,0,0-1.028.484,2.831,2.831,0,0,0-.322,1.512v2.527a.92.92,0,0,0,.177.67,1.044,1.044,0,0,0,.686.164l.093,0c0,.528.01,1.056.01,1.583q-3.35.039-6.7.09c.01-.529,0-1.054.01-1.582.125,0,.25-.006.374-.008a1.422,1.422,0,0,0,.821-.175.865.865,0,0,0,.208-.681c0-1.215.007-2.428,0-3.642,0-.35-.066-.576-.2-.68a1.434,1.434,0,0,0-.823-.146c-.124,0-.248,0-.373.01v-1.582c1.86-.036,3.731-.071,5.6-.1C1086.606,230.739,1086.606,231.092,1086.606,231.444Z" transform="translate(-894.094 -204.593)" fill="#393185"/><path d="M22.775,1.071c-4.663-.01-5.327-.008-5.327-.005-.178,1.887-.293,3.775-.41,5.667.34,0,.72.006,1.1.008a1.818,1.818,0,0,1,1.287.332,1.542,1.542,0,0,1,.285,1.2c-.011.166-.055.364-.09.6-.038.257-.1.544-.174.869-.794,3.435-1.5,6.867-2.082,10.285-.575,3.394-.978,6.771-1.335,10.118-1.785-2.522-4.6-10.726-5.743-20.448.053-.344-.02-1.111,0-1.535a1.582,1.582,0,0,1,.428-1.156,1.842,1.842,0,0,1,1.3-.316c.4.005.784.007,1.207.018.137-1.891.272-3.772.45-5.653C9.262,1.039,4.893,1.025.5,1,.293,2.821.125,4.643,0,6.456c.317.009.676.018,1.014.025A1.76,1.76,0,0,1,2.554,7.67a12.277,12.277,0,0,1,.852,3.635c.7,8.2,4.716,19.577,9.091,28.915,2.525.28,5.082.495,7.636.723A127.036,127.036,0,0,1,21,26.02c.636-5.068,1.662-10.18,2.775-15.312a8.281,8.281,0,0,1,1.1-3.1A1.9,1.9,0,0,1,26.491,6.8c.276,0,.552,0,.711,0,.222,0,.6.007,1.007.008.785,0,1.248.183,1.446.542a7.769,7.769,0,0,1,.177,2.911c-.141,3.7-.213,7.39-.123,11.077s.372,7.359.757,11.021a7.834,7.834,0,0,1,.009,2.894c-.157.357-.635.547-1.418.534-.381-.005-.74-.016-1.143-.017.311,1.883.6,3.758.978,5.62q10.456.1,20.834-.55c-.456-2.745-.89-5.5-1.194-8.261s-.5-5.537-.677-8.32c-1.133.055-2.288.115-3.442.17.069,2.5.053,4.434-.033,5.848a11.059,11.059,0,0,1-.591,3.364A2.554,2.554,0,0,1,42.636,35.1a7.314,7.314,0,0,1-2.879.521c-.49.021-1,.022-1.49.029-.49-4.208-.925-8.429-1.1-12.669s-.076-8.5.056-12.754a2.491,2.491,0,0,1,0-.292,6.252,6.252,0,0,1,.446-2.673,1.781,1.781,0,0,1,1.473-.483c.425,0,.85-.005,1.254,0,.073-1.895.167-3.79.3-5.684L22.775,1.071Zm38.508,20.4c-.39-1.914-.79-3.825-1.127-5.749s-.651-3.844-.911-5.778q-.572,2.942-1.014,5.882c-.3,1.975-.6,3.959-.812,5.944q1.932-.147,3.864-.3Zm1.006,17.95c-.3-1.8-.559-3.608-.815-5.427.324-.036.649-.081.973-.12a2.894,2.894,0,0,0,1.507-.427,1.15,1.15,0,0,0,.185-.943,6.149,6.149,0,0,0-.127-.849c-.08-.273-.133-.524-.221-.782-.416-1.326-.787-2.665-1.136-4.008-2,.2-3.985.4-5.966.589-.127,1.269-.233,2.533-.338,3.793-.046.579-.072,1.033-.1,1.359a5.065,5.065,0,0,0,.035.893,1.05,1.05,0,0,0,.5.76,1.969,1.969,0,0,0,1.184.167c.369-.044.714-.091,1.082-.137.253,1.841.509,3.66.828,5.478-3.263.395-6.524.768-9.811,1.043-.315-1.853-.606-3.719-.853-5.593.278-.017.535-.038.793-.057a1.567,1.567,0,0,0,1.3-1.054,10.959,10.959,0,0,0,.63-3.191c.517-5.056,1.226-10.1,2.191-15.092.961-4.971,2.171-9.89,3.392-14.748q3.979,0,7.959-.017c.616,4.641,1.306,9.284,2.149,13.9S69.6,24.132,70.85,28.664a9.839,9.839,0,0,0,1.3,3.183,1.59,1.59,0,0,0,1.454.344c.369-.06.739-.122,1.132-.188.208,1.715.482,3.607.734,5.315-4.372.849-8.775,1.432-13.184,2.1Zm12-15.7c1.061-.141,2.123-.287,3.163-.429a12.708,12.708,0,0,0,3.127,6,4.781,4.781,0,0,0,4.475,1.419,3.437,3.437,0,0,0,2.238-1.471,3.99,3.99,0,0,0,.641-2.7c-.157-1.608-1.539-2.737-4.172-3.424-.878-.227-1.55-.418-2.055-.587a30.769,30.769,0,0,1-3.669-1.42,6.509,6.509,0,0,1-1.886-1.285,9.357,9.357,0,0,1-2.034-3.391,13.522,13.522,0,0,1-.642-4.465A14.286,14.286,0,0,1,76.218,3.21,8.118,8.118,0,0,1,82.855,0a11.567,11.567,0,0,1,7.132,2.381c.249-.53.456-1.061.685-1.592,1.062,0,2.124,0,3.163-.009-.1,1.78-.209,3.572-.28,5.371s-.1,3.618-.12,5.436c-1.248.115-2.5.227-3.7.337A9.45,9.45,0,0,0,87.8,6.913a4.759,4.759,0,0,0-3.947-1.55,3.424,3.424,0,0,0-2.481,1.122A3.787,3.787,0,0,0,80.358,9.1c-.041,1.544,1.155,2.616,3.57,3.2.614.149,1.065.26,1.412.349,3.372.86,5.736,2.054,7.122,3.568s2.114,3.675,2.322,6.546a13.451,13.451,0,0,1-1.714,8.272,10.018,10.018,0,0,1-10,4.811,11.58,11.58,0,0,1-3.826-1.361c-.192.715-.364,1.43-.512,2.133-.987.215-2,.433-2.982.64-.34-2.248-.626-4.507-.891-6.756s-.421-4.525-.57-6.776Zm28.823-18.34a3.339,3.339,0,0,0-2.834,1.764,10.214,10.214,0,0,0-1.059,4.913.809.809,0,0,1-.02.124c-1.1.111-2.155.219-3.232.326.039-1.946.088-3.889.156-5.817S96.28,2.856,96.4.957q11.527-.039,23.1-.064c-.061,1.534-.187,3.077-.252,4.62-.065,1.564-.132,3.125-.157,4.7-1.076.1-2.132.206-3.207.3a.221.221,0,0,1-.006-.107,7.159,7.159,0,0,0-.825-4.089,2.862,2.862,0,0,0-2.729-1.326c-.342.015-.64.027-.94.043-.136,2.732-.255,5.493-.251,8.27s.109,5.6.3,8.412a3.216,3.216,0,0,0,.5,1.909c.241.213.752.226,1.521.054.57-.128,1.185-.262,1.8-.4.085,1.26.213,2.525.363,3.778q-7.058,1.857-14.041,3.761c-.208-1.432-.374-2.865-.518-4.3.549-.122,1.119-.261,1.67-.388a2.381,2.381,0,0,0,1.4-.677,4.668,4.668,0,0,0,.15-2.263c-.21-3.005-.354-6.011-.384-8.991s.067-5.929.169-8.857c-.32.011-.641.026-.94.039Zm40.633-4.5c-.054,1.2-.192,2.4-.247,3.609s-.112,2.43-.149,3.656c-1.179.077-2.336.154-3.495.24a12.441,12.441,0,0,0-.612-2.271,3.567,3.567,0,0,0-.845-1.293,3.4,3.4,0,0,0-1.472-.79,12,12,0,0,0-2.9-.166c-.234.006-.447.011-.639.02-.938.026-1.9.048-2.835.079-.068,1.011-.156,2.024-.182,3.038s-.074,2.036-.079,3.057c.28-.025.58-.054.839-.078a2.96,2.96,0,0,0,2.13-.9,4.462,4.462,0,0,0,.7-2.552,1.558,1.558,0,0,1-.015-.185c.92-.052,1.86-.1,2.779-.143-.091,1.59-.163,3.2-.194,4.805s0,3.237.052,4.861c-.932.134-1.822.263-2.733.4a5.277,5.277,0,0,0-.665-2.909,2.29,2.29,0,0,0-2.055-.445c-.3.035-.6.071-.886.108-.007,1.175-.006,2.364.06,3.537s.131,2.371.207,3.555c1.266-.24,2.536-.482,3.842-.714a12.852,12.852,0,0,0,3.05-.808,3.094,3.094,0,0,0,1.251-1.118,6.709,6.709,0,0,0,.739-1.947,12.432,12.432,0,0,0,.348-2.731c1.208-.132,2.395-.265,3.623-.393.025,1.38.02,2.767.054,4.146s.11,2.783.174,4.189q-11.379,2.226-22.666,4.958c-.137-1.2-.233-2.393-.349-3.589.349-.068.723-.142,1.115-.223a2.681,2.681,0,0,0,1.381-.578,2.676,2.676,0,0,0,.238-1.718.794.794,0,0,1-.016-.18c-.153-2.221-.2-4.44-.207-6.646s.1-4.377.2-6.549a2.62,2.62,0,0,0-.256-1.682c-.188-.2-.677-.292-1.466-.267-.384.012-.746.027-1.088.038.067-1.144.132-2.281.2-3.416Q132.236.874,143.746.883Zm15.693.048c-.034.8-.093,1.6-.128,2.4-.425,0-.829.006-1.254.012a3.325,3.325,0,0,0-1.434.226c-.248.148-.374.53-.43,1.16,0,.048.008.086,0,.133-.128,1.839-.238,3.7-.287,5.564s-.016,3.76.018,5.646c.475-.054.973-.12,1.449-.179a20.1,20.1,0,0,0,2.9-.5,3.294,3.294,0,0,0,1.321-.741,3.636,3.636,0,0,0,.95-1.513,9.993,9.993,0,0,0,.461-2.5c1.136-.078,2.294-.159,3.429-.227-.024,1.144-.027,2.289-.053,3.442s-.03,2.315-.036,3.481q-10.283,1.285-20.436,2.974c-.049-.94-.1-1.874-.127-2.813.346-.051.715-.1,1.062-.151a2.854,2.854,0,0,0,1.493-.474,2.073,2.073,0,0,0,.3-1.44c-.049-1.743-.07-3.476-.043-5.2s.136-3.437.244-5.14c.046-.722-.031-1.165-.225-1.325a2.7,2.7,0,0,0-1.495-.216c-.362.008-.745.015-1.085.022.071-.892.121-1.783.169-2.674q6.619.012,13.234.038Zm22.6.13c0,.686-.036,1.368-.056,2.058-.381,0-.742,0-1.1,0a3.44,3.44,0,0,0-1.519.221c-.232.141-.357.492-.393,1.057-.085,1.368-.167,2.735-.214,4.1-.049,1.379-.107,2.76-.137,4.145-.012.582.079.934.326,1.069a3.189,3.189,0,0,0,1.491.108l1.073-.077c-.046.719-.088,1.427-.133,2.143-4.363.364-8.711.776-13.02,1.218.031-.775.022-1.552.053-2.324.344-.032.689-.07,1.076-.1a3.354,3.354,0,0,0,1.5-.35,1.464,1.464,0,0,0,.37-1.182c.009-1.451.076-2.9.124-4.343s.143-2.868.223-4.295c.033-.587-.056-.945-.279-1.1a3.184,3.184,0,0,0-1.5-.2l-1.083.008c.049-.745.076-1.492.126-2.242,4.346.026,8.733.056,13.078.089Zm12.08.1c1.336,1.548,2.678,3.093,3.951,4.607s2.624,3.011,3.926,4.5c.024-1,.111-2.006.135-3.009s.064-2,.09-2.993c.015-.535-.089-.854-.32-.974a4.315,4.315,0,0,0-1.48-.174l-1.23,0c.011-.639,0-1.273-.009-1.907,3.241.033,6.461.068,9.7.1.012.622.026,1.239.017,1.861l-.785,0a3.9,3.9,0,0,0-1.49.165c-.233.115-.3.43-.312.946-.046,1.7-.122,3.414-.2,5.122-.08,1.729-.225,3.455-.424,5.2-2.535.068-5.1.165-7.617.275q-1.929-2.4-3.981-4.834c-1.368-1.63-2.708-3.286-4.05-4.947-.067,1.15-.124,2.305-.182,3.459s-.1,2.324-.165,3.489c-.029.557.076.9.292,1.018a3.488,3.488,0,0,0,1.488.116l.983-.047c-.08.673-.117,1.341-.2,2.019-3.256.206-6.491.416-9.729.639.064-.712.086-1.419.151-2.126.344-.029.708-.049,1.092-.069a3.636,3.636,0,0,0,1.508-.29,1.307,1.307,0,0,0,.416-1.071c.066-1.326.082-2.65.132-3.97s.133-2.624.211-3.93c.032-.55-.081-.882-.292-1.018a3.45,3.45,0,0,0-1.519-.2c-.361,0-.721,0-1.061,0,.019-.686.058-1.371.055-2.057,3.644.035,7.247.067,10.892.1Z" transform="translate(0 0.001)" fill="#e5097f"/></g></svg>