<svg xmlns="http://www.w3.org/2000/svg" width="16" height="9.124" viewBox="0 0 16 9.124"><path d="M51.4,94.751h.956a.806.806,0,0,0,.438-.189.667.667,0,0,0,.129-.418s-.02-1.285.578-1.474,1.345,1.245,2.141,1.793a1.522,1.522,0,0,0,1.066.329l2.141-.03s1.116-.07.588-.946a7.163,7.163,0,0,0-1.594-1.843c-1.345-1.245-1.165-1.046.458-3.2.986-1.315,1.375-2.112,1.255-2.46-.12-.329-.837-.239-.837-.239l-2.41.02a.557.557,0,0,0-.309.06.665.665,0,0,0-.209.259A13.911,13.911,0,0,1,54.91,88.3c-1.076,1.823-1.5,1.922-1.673,1.8-.408-.259-.309-1.056-.309-1.623,0-1.763.269-2.5-.518-2.689a4.021,4.021,0,0,0-1.125-.11,5.056,5.056,0,0,0-2,.209c-.279.129-.488.438-.359.448a1.071,1.071,0,0,1,.707.359,2.292,2.292,0,0,1,.239,1.086s.139,2.082-.329,2.341c-.329.179-.767-.189-1.723-1.843a15.385,15.385,0,0,1-.857-1.783.666.666,0,0,0-.2-.269,1.038,1.038,0,0,0-.369-.149l-2.291.01s-.349.01-.468.159c-.11.129-.01.408-.01.408a25.987,25.987,0,0,0,3.825,6.3A5.455,5.455,0,0,0,51.4,94.751Z" transform="translate(-43.584 -85.675)" fill="#fff" fill-rule="evenodd"/></svg>